<svg xmlns="http://www.w3.org/2000/svg" viewBox="0 0 1388 930"><defs><style>.cls-1{fill:#181819;}.cls-2{fill:#e62c26;}.cls-3{fill:#e62b26;}.cls-4{fill:#fff;}.cls-5{fill:#fefefe;}.cls-6{fill:#fdfdfd;}.cls-7{fill:#e52722;}.cls-8{fill:#e52723;}.cls-9{fill:#f6f6f7;}.cls-10{fill:#f7f7f7;}.cls-11{fill:#fbfbfb;}.cls-12{fill:#faf9fa;}.cls-13{fill:#232424;}.cls-14{fill:#fefdfd;}.cls-15{fill:#fefcfc;}.cls-16{fill:#fdfafa;}.cls-17{fill:#2a2726;}.cls-18{fill:#fcf6f6;}.cls-19{fill:#1b1b1b;}.cls-20{fill:#f7e7e7;}.cls-21{fill:#1e1e1e;}.cls-22{fill:#201c1b;}.cls-23{fill:#f8f2f2;}.cls-24{fill:#ec9d9e;}.cls-25{fill:#101111;}.cls-26{fill:#f1cfce;}.cls-27{fill:#fcfcfc;}</style></defs><title>Plan de travail 1</title><g id="Calque_1" data-name="Calque 1"><path class="cls-1" d="M34.24,275.21c4.78.29,9.68,0,14.32,1,26.71,5.56,53.31,11.63,80,17.09,16.25,3.32,32.63,6,49,8.69q26.28,4.29,52.66,7.9c8.49,1.15,17.08,1.75,25.65,2.08,21.88.84,43.77,1.81,65.65,1.92,15.39.07,30.78-1.16,46.17-1.9a43,43,0,0,0,6.09-1.23c.72-7.41,1.5-14.91,2.1-22.43a6.66,6.66,0,0,0-1.12-3.48c-1.06-1.85-2.66-3.42-3.52-5.34-4.53-10.08-8.82-20.26-13.33-30.34-6.54-14.63-13.21-29.19-19.81-43.79q-16.75-37.08-33.52-74.16c-5.4-11.91-10.9-23.76-16.36-35.64-.27-.6-.59-1.19-.88-1.78-3.65-7.53-2-10.47,6.52-10.92-3.68-8.07-7.23-16-10.94-23.95-4.09-8.7-8.61-17.21-12.33-26.06-1.12-2.65-1.16-6.68.16-9,.76-1.36,5.41-1.4,8-.77,28.13,6.83,56.1,14.32,84.33,20.68,10.55,2.38,21.64,2.59,32.51,3.23,20.19,1.19,40.4,2.72,60.6,2.72,22.48,0,45-.93,67.42-2.63C543.83,45.48,564,42.79,584,39.85c17.72-2.6,35.3-6.26,52.94-9.44,2.57-.47,5.15-.88,7.63-1.3.95-8.42,2.35-9.85,10.62-9.87,22.78-.07,45.55,0,68.32,0,3.46,0,6.92-.12,10.37-.06,5.37.11,8.8,2.89,8.71,8.09-.06,3.28,1.55,4,3.83,4.37,8,1.2,16,2.22,24,3.31,11.75,1.6,23.49,3.31,35.26,4.78q14.72,1.83,29.48,3.19c15.48,1.42,31,2.89,46.49,3.87,12.43.79,24.9,1,37.36,1.24,15.43.28,30.86.6,46.29.36,32.29-.49,63.85-6.24,95.1-14,16.44-4.11,32.88-8.26,49.4-12,2.79-.63,7.38-.5,8.68,1.17,1.58,2.05,1.54,6.46.52,9.24-6.07,16.57-12.7,32.95-18.92,49.47-.57,1.52.44,3.61.6,5.45.22,2.65,1.29,5.74.33,7.9-6.71,15.13-13.86,30.07-20.85,45.08q-20.64,44.35-41.23,88.73c-5.19,11.25-10,22.65-15,34-2.13,4.83-3.32,10.39-6.49,14.37-8.55,10.72-5.42,22.31-4.28,34.36,3,.31,5.75.8,8.5.85,24.53.39,49.07,1,73.6.92,16.55-.07,33.14-.75,49.64-2,18.88-1.46,37.84-2.91,56.47-6.11,28.64-4.93,57.1-11,85.5-17.25,19-4.15,37.62-9.52,56.51-14,3.44-.81,7.31.19,10.73.34,1.28,6.88-2.18,11.06-5.25,15.21-16.58,22.39-33.08,44.85-50.06,66.94a295.65,295.65,0,0,1-23,26.17q-42.07,43.07-84.61,85.68c-10.37,10.43-21.1,20.51-31.6,30.82-3.17,3.1-6.1,6.45-9.57,10.14a25,25,0,0,0,4.82,1.11c11.77.42,23.55.79,35.33,1,9.05.17,10.78,1.88,10.93,10.68.23,14.28.6,28.56,1,42.83.28,10.28.74,20.56,1,30.84.13,6.21-1.42,7.78-7.52,7.68-16.11-.25-32.23-.43-48.33-1-12.86-.48-25.7-1.55-39.51-2.42.44,8,.84,15.19,1.23,22.4.06,1,.14,2,.15,3,.34,30.78.62,61.55,1,92.33.19,14.11.9,28.22.91,42.33,0,13.11-.49,26.23-1,39.33-.54,14.9-1.15,29.79-2,44.67-.77,13.18-2,26.34-2.88,39.51a29,29,0,0,0,.83,6.82c.92,5.12-1.32,8-6.55,8.09-4.66.08-9.34.22-14-.07-2.05-.13-4.05-1.27-5.52-1.76,1-2.71,2-4.36,2.05-6.07,1.22-24.94,2.63-49.89,3.35-74.85.94-33.29,1.32-66.6,1.93-99.9,0-1-.11-1.93-.19-3.17H294c.26,60.61,4.05,121,8.32,181.35,0,.31,1.43.53,2.32.83a5.41,5.41,0,0,1-.86,1.77c-2.5,2.26-18.86,3.33-20.42.67a27.17,27.17,0,0,1-3.22-11.52c-1-13.53-1.46-27.1-2.12-40.66q-1-21.09-2-42.17c-.38-8.44-.88-16.89-1-25.33-.42-38.11-1-76.22-.93-114.33,0-19.39,1.2-38.78,1.94-58.17a50,50,0,0,1,1.1-6.4c-7.7.43-14.9.82-22.11,1.26-1,.06-1.94.48-2.91.52-10.44.36-20.89.56-31.33,1.06q-15.34.72-30.66,2c-5.86.47-8.35-1.62-8.13-7.64q1-26.58,2-53.16c.29-7.61.67-15.22,1-22.84.3-7.36,2.39-9.19,9.64-9.45,14.07-.52,28.12-1.26,42.17-2,1.7-.09,3.36-.78,5.93-1.41-10.58-8.85-20.68-17.07-30.52-25.58-8.14-7-16.15-14.23-23.9-21.67-10-9.61-20-19.25-29.45-29.41-14.57-15.69-28.75-31.74-42.91-47.79q-15.8-17.91-31.1-36.25c-10.16-12.24-20-24.75-29.92-37.2-5.58-7-11.19-14-16.46-21.22-2.38-3.26-4-7.1-5.89-10.68ZM525.92,487l-34.36,3.15-3.28-2.77c.89-3.63,2.18-7.22,2.61-10.9,1.41-12.17,2.54-24.37,3.72-36.56,1-10.16,1.86-20.32,2.83-31l-11.81,1.39q-3.37,34.26-6.74,68.58l-2.9-2.29a13.88,13.88,0,0,0,.68-2.4q2.65-26,5.25-52c.39-3.89.66-7.78,1-12L319.38,427.09c-2.35,26.29-4.64,51.85-6.94,77.58,2.66,0,5.14.2,7.58,0q18.57-1.75,37.12-3.72c11.21-1.18,22.4-2.56,33.62-3.68,11.71-1.17,23.44-2.14,35.16-3.19l-16.6,4.12c-15.17,1.6-30.33,3.31-45.52,4.77-22.47,2.16-44.94,4.29-67.44,6.16-26,2.17-52,4-78,6-9.05.69-18.12,1.27-27.56,1.92-1.07,27.22-2.11,53.91-3.16,81,2.42,0,4,0,5.68,0,17.46-.73,34.92-1.39,52.38-2.23,11.63-.56,23.25-1.3,34.87-2.09q33.33-2.28,66.66-4.73c10.94-.8,21.86-1.83,32.8-2.67,14.92-1.14,29.84-2.18,44.76-3.27l-2,3.12c-14.93,1.06-29.86,2.08-44.79,3.18-21.23,1.55-42.45,3.17-63.68,4.74-10.58.78-21.16,1.51-31.75,2.27a8.06,8.06,0,0,0-.45,1.63c-1,29.62-2.45,59.24-2.9,88.88-1,68.13,2,136.15,7,204.09.1,1.42,1.85,3.68,3.08,3.87,3.49.53,7.11.19,10.52.19-1.56-22.09-3.58-43.47-4.48-64.89-1.6-37.94-2.47-75.91-3.76-113.86-.16-4.81,1.71-6.33,6.4-6.34,79.5-.19,159-.78,238.48-.74q274.73.18,549.45.82h5.31c-2,61.9-4,123.33-5.94,185.26l14.18-1.24c5.82-98.84,8-197.52,1.66-296l-134-9.88v-3c15.4,1.27,30.8,2.64,46.22,3.79,15.92,1.18,31.86,2.19,47.79,3.2,21.09,1.32,42.17,2.66,63.27,3.83q27.17,1.5,54.37,2.6c6.39.26,12.81,0,19.38,0-.83-27-1.64-53.55-2.48-80.71-70.63-2.35-140.73-9.21-210.8-16.22,0-.92-.07-1.84-.1-2.75,10.4,1,20.81,2,31.2,3.06,11.72,1.2,23.42,2.54,35.14,3.68,7.67.74,15.37,1.23,23.54,1.86-2.18-26.4-4.3-52.26-6.4-77.77l-153.5-15.65c1,9.42,1.85,18.31,2.78,27.19q2.26,21.76,4.56,43.53l-2.49.05L912,413.77l-9.38-.89c1,9.77,1.82,18.83,2.75,27.89q2.28,22,4.64,44.06l-2.7,0q-3.69-36.08-7.38-72.31c-64-6.24-127.58-11.23-192-12,.55,25.87,1.09,51.52,1.63,77.34h11l0,2.78-39.9-.8-1.92-2.58h13.9V400.06C628,400,564,403,500.28,409c-2.58,26.51-5.07,52.18-7.59,78.13L525.92,484Zm587.6-459.69q-26.93,6.6-53.85,13.18c-30.18,7.33-60.68,13.06-91.8,13.33-27.44.24-54.91-.6-82.33-1.7-19.74-.79-39.49-2.26-59.12-4.39C801,45,775.77,41.24,750.44,38c-13.32-1.72-13.32-1.66-13.51-11.79,0-.28-.24-.56-.43-1H650.29c.22,3.23.44,6.26.65,9.26-3.42.27-6.06.27-8.62.71-23.16,3.94-46.33,7.88-69.47,12-32.18,5.71-64.69,7.11-97.26,7.62q-22.45.35-44.91-.57c-19.09-.79-38.23-1.54-57.21-3.53-24.22-2.54-47.81-8.55-71.18-15.35-9-2.6-18-5-27.65-7.69,8.94,19,17.58,37.2,26,55.49,1.26,2.77,2.94,3,5.41,3,29.8.14,59.61.38,89.42.51q48,.21,96,.26,147.21.38,294.4.74,90,.21,180,.26c8.67,0,17.33,0,26,0,31.83,0,63.66,0,95.49.08,3,0,4.47-.94,5.5-3.61,2.45-6.3,5.26-12.45,7.64-18.78,4.69-12.47,9.19-25,13.76-37.52l.56-.6Zm235.16,252.42a12.66,12.66,0,0,0-2.07,0c-6.58,1.6-13.16,3.17-19.72,4.83-49.37,12.42-98.62,25.47-149.62,29.52-28.11,2.23-56.25,4.43-84.41,5.6-18.44.76-37,0-55.44-.69q-39-1.49-78-3.95c-25.69-1.65-51.34-4.05-77-5.89s-51.42-3.64-77.16-5-51.24-2.73-76.87-2.87c-43.32-.23-86.64.35-130,.91-15.31.2-30.61,1.2-45.9,2.11-18.08,1.06-36.16,2.43-54.24,3.66-15.75,1.07-31.51,2-47.25,3.22-22.86,1.78-45.68,4.13-68.55,5.58-21.36,1.35-42.76,2.38-64.16,2.55-21.07.17-42.26.18-63.22-1.73-27.05-2.47-54.08-6.07-80.85-10.72-37.12-6.44-74-14.3-111-21.6-7.59-1.5-15.15-3.16-22.73-4.75l-1,1.51c29.81,35.72,59.2,71.8,89.59,107,17.29,20,35.47,39.4,54.59,57.67,21.49,20.54,44.62,39.36,66.74,59.27,4,3.58,7.84,4.22,12.64,3.75,10.75-1,21.5-2,32.27-2.76,3-.19,4.21-1.19,4.42-4q1.06-14.16,2.24-28.32,1.56-19.37,3.17-38.73c.22-2.53.59-5.06.9-7.66l-29.76,2.5-.45-1.27c.94-.51,1.85-1.37,2.84-1.48,4.12-.48,8.27-.71,12.41-1.07,16.05-1.4,32.11-2.64,48.13-4.25,20.8-2.09,41.55-4.57,62.34-6.72,18-1.86,36-3.47,54-5.22,19.83-1.92,39.63-4.07,59.48-5.74,16.23-1.37,32.5-2.35,48.77-3.22,26.26-1.4,52.53-3.26,78.81-3.71,61.3-1,122.55.4,183.66,5.73q39.71,3.47,79.39,7,31.73,2.92,63.42,6.16c24.59,2.52,49.14,5.45,73.75,7.76,21.67,2,43.39,3.45,65.08,5.23,1.22.1,2.38,1.06,3.56,1.62-.14.4-.29.8-.44,1.21l-29.52-2.11c.87,10.3,1.76,19.87,2.47,29.45q1.66,22.6,3.13,45.25c.15,2.35.86,3.44,3.54,3.59,14.44.86,28.87,1.81,43.28,3.07,3.28.29,5.17-.88,7.28-3,21.32-21.1,42.56-42.29,64.13-63.12,44.22-42.7,87.39-86.29,122.35-137.25C1334.35,299.1,1341.45,289.74,1348.68,279.75ZM291.69,89,378.2,279.4c1.72-11.78,2.16-23.37,2.81-34.95.52-9.22,1.07-18.46,2.17-27.62.21-1.77,2.75-4,4.66-4.59,1.36-.4,4.27,1.2,5,2.67,1.42,2.69,1.78,5.94,2.68,9.33l80.91-3.3c.53-12.33,1-24.06,1.53-35.79l1.57.07v35.39c3.86,1.22,5.19-.44,5.26-4.35.17-9.16.6-18.31,1-27.46a32.68,32.68,0,0,1,.56-3.79l1.19.14v35.08L624,215.7V181.1l1.94,0v34.94l7.11-.37V181.09h1.86v34.79H753.46V180.76l1.73,0v35.69h8.36V180.92l1.94,0v35.55l134,5V184h1.3c.52,12.49,1,25,1.55,37.62h6.56c-.33-4.51-.75-8.66-.92-12.81s-.13-8.33-.08-12.5c.05-3.8-.5-7.69.08-11.44l1.76.13c.51,12.3,1,24.61,1.54,37.18l76.83,2.72c4,.15,5.66-1.71,6.41-5.72.37-1.95,3.17-4.76,4.91-4.78s5.06,2.61,5.3,4.41c1,6.95,1,14,1.31,21q.91,20.52,1.79,41l.95,0q43.83-94.82,87.73-189.74Zm87.48,225.2c7.26-.43,14-.78,20.79-1.25,15.08-1,30.17-2.08,45.24-3.24,19.88-1.52,39.73-3.29,59.62-4.7,13.77-1,27.56-1.59,41.35-2.23,28.77-1.32,57.53-3.3,86.31-3.65,55.13-.67,110.27-.86,165.35,2.71,19.75,1.28,39.55,1.86,59.29,3.23,24.2,1.67,48.35,4,72.54,5.76,20.7,1.52,41.43,2.77,62.16,4,5.21.31,10.45.05,15.77.05-.62-8.8-1.22-17.18-1.82-25.62-7.6-.43-14.73-.82-21.85-1.26-11.46-.71-22.91-1.39-34.35-2.19-17.41-1.22-34.81-2.59-52.23-3.77-12.1-.82-24.23-1.44-36.35-2.13-23.25-1.31-46.49-2.69-69.75-3.87-11.47-.58-23-.92-34.45-1.12-31.81-.55-63.64-1.65-95.44-1.27-39.79.48-79.57,2.14-119.35,3.47-13,.43-25.92,1.32-38.87,2.18-17.24,1.14-34.47,2.53-51.72,3.69s-34.52,2.12-51.77,3.24c-6.1.39-12.19,1-18.36,1.48C380.58,296.55,379.91,305,379.17,314.22Zm2.4-29.37c3.11,0,6.26.2,9.38,0,16.74-1.2,33.47-2.62,50.21-3.76,26-1.77,52.07-3.61,78.13-5,30.42-1.6,60.84-3.47,91.28-3.9,46.3-.66,92.61-.25,138.92-.12,10.82,0,21.64.61,32.45,1.14Q818.83,275,855.7,277q17.43.94,34.85,2.13,28.1,1.86,56.2,3.87c12.1.85,24.19,1.84,36.29,2.65,7.55.5,15.12.79,22.5,1.17-.8-21-1.58-41.45-2.37-62.06-2.81,0-6.89-.82-7.37.15-1.63,3.32-4.14,2.15-6.27,2.09q-28-.8-55.91-1.87c-31.59-1.27-63.18-2.81-94.78-3.95-32.79-1.19-65.58-2.73-98.37-2.88-54.14-.24-108.28.46-162.42.89-11.16.09-22.31.65-33.45,1.13-27.1,1.18-54.2,2.52-81.3,3.65-23,1-45.92,1.69-68.88,2.51a5.61,5.61,0,0,1-1.43-.33c-.12-1.35-.23-2.6-.35-3.88h-8.1C383.55,243.12,382.58,263.69,381.57,284.85ZM705.35,477.72V400.46h-8.9v76.8ZM310,505.72c2.36-26.29,4.7-52.36,7.06-78.74l-8.79,1.36q-3.34,38.81-6.66,77.38Zm775.33,2.84-6.14-78.35h-8.6q3.2,39.14,6.32,77.56Z"/><path class="cls-2" d="M745.27,874c1-5.61,2-10.61,2.75-15.64.92-6.05,1.65-12.13,2.62-19.39-2.94-3.75-2.91-7.83.43-11.59-.37-2.91-.65-5.11-.92-7.32C749.09,811.5,748,803,747,794.44c-.34-2.79-.23-5.69-.94-8.38-.57-2.18-2.07-4.12-3.68-7.16,2.11-5.68,8.46-8.38,16.48-6.24a67,67,0,0,0,14,2.38c11.76.53,23.52.46,35-2.94a11.29,11.29,0,0,1,3,0,11.33,11.33,0,0,1-12.06,9.18c-6.37-.56-12.83-.21-19.25-.23-7.39,0-14.77,0-21.94,0-1.59,5.67-2.63,11,.27,16.92a218,218,0,0,0,47.79,1.44c3.6-.27,7.18-1,10.77-1.11,1.26,0,2.55,1.19,3.93,1.9L828,796c-3.52,9.5-7.85,11.45-13.89,7.41-6.28,3.67-13.1,1.85-19.72,1.9-11.89.09-23.77,0-35,0-1,4.81-2.15,8.77-2.67,12.8-.29,2.27.49,4.67.6,7,.29,6.09.43,12.18.72,18.27.25,5.07.82,10.14.86,15.21,0,2.16-1,4.32-1.47,6.5a5.45,5.45,0,0,0-.14,2.73c.16.48,1.31.89,2,.85,4.81-.25,9.61-.75,14.43-1,8.52-.34,17-.65,25.57-.73,4.58,0,9.18.65,13.76.57a52.54,52.54,0,0,0,9.38-1.37c3.45-.71,6.84-1.67,10.63-2.62-2.6,8.42-4.82,9.43-12.92,8.06-2.72-.46-5.74,1.24-8.64,1.27-11.13.09-22.3.46-33.37-.42-5-.4-9.83,1.73-15.27-1-3.43-1.7-9.08,1.12-13.75,1.88C747.5,873.7,745.89,873.89,745.27,874Z"/><path class="cls-2" d="M442.87,876.44c-1.57-4.57-3-8.76-4.44-13-1.3-3.77-.05-7.93-4.07-11.47-2.83-2.49-3-8-4.78-13.32-3,5.84-6.38,4.57-10.21,2.91-2.1-.92-4.67-.94-7-1-8.75-.33-17.51-.69-26.27-.68-4.43,0-9.33-.21-13.16,1.54-3,1.36-4.83,5.49-6.81,8.63a79.24,79.24,0,0,0-7,12.73c-1.45,3.67-3,6.91-5.87,9.72s-5.18,3.05-7.51,1L366,841.92c-5.67-2.45-2.18-5.93-.3-7.17,11.72-7.69,15-20.88,21.74-31.85,5-8.15,9-16.62,10.69-26.09a2.89,2.89,0,0,1,1.16-1.52c3.75-2.76,7.53-5.46,12.41-9,.12,7.28,5,12.67,2.79,17.88,2.85,5.68,5.59,10.55,7.77,15.66,2.49,5.87,4.15,12.1,6.77,17.91,3.89,8.62,8.37,17,12.5,25.5,4,8.18,7.92,16.39,11.71,24.66,1.84,4-1.62,5.49-4.11,7C447.5,875.83,445.36,875.86,442.87,876.44ZM403.18,784.9c-9.25,16.08-18,31.24-27.23,47.32,17.61,2.59,34.09,4.36,50.86,1.86Z"/><path class="cls-2" d="M863.37,803.49a22.35,22.35,0,0,1,2,3.09c2.21,4.68,8.16,7.26,13,5.47,4-1.48,7.91-3.12,11.94-4.46,1-.34,2.34.17,3.52.28-.31,1.24-.25,2.75-1,3.65-7.1,8.88-16.78,6.72-26.13,5.89-.45,0-.91-.12-1.85-.25.17,2.3.31,4.41.49,6.51.1,1.16.71,2.49.34,3.44-2.53,6.47,2,12.86.47,18.86-1.23,4.76.44,9-.19,13.46-.71,5.1-6.62,8.79-13.89,8.44.67-5.67,1.41-11.31,2-17a82.15,82.15,0,0,0,.37-8.59c0-6.32-.35-12.63-.14-18.93.05-1.55,1.71-3,2.63-4.57-9.93-6.88-9.93-6.88-15.52-2.2,1.58-6.6,4.75-9.21,12.46-9.76-.79-6.3.52-12.47-.35-19-1-7.3-2.31-15.14,1.39-22.51,1-2.06.14-5,.88-7.31,3-9.3,9.77-15.38,17.47-20.92,5.58-4,11.63-4.48,17.92-3.9,2.14.2,4.14,1.84,6.69,3-1.45,2-2.6,3.69-3.89,5.29-2.92,3.6-5.79,4.85-10.41,1.78-6.64-4.41-11.8-2.38-14.73,5.27-2.36,6.13-5.07,12.11-4.32,19.19.49,4.62-1.33,9.44-1.36,14.17,0,4.06,1.31,8.12,1.48,12.21C864.76,796.94,863.91,799.8,863.37,803.49Z"/><path class="cls-3" d="M605,831.12l3.76-9.89c-6.69.27-9.6-7.12-17.13-8-7.23-.88-11.75,1.78-16.58,5.29s-6.89,3.69-12.09-.49c4.49-6.6,12-7.7,18.68-9.84a36.33,36.33,0,0,1,22.89-.29c2.79.92,4.32,1.77,3.57,5.39,4.37-2.75,5.77.52,6.76,3.31A56.9,56.9,0,0,1,617.59,828c.34,2.5-.62,5.14-.53,7.69.17,4.65.59,9.28,1.1,13.9.43,3.92,1.22,7.79,1.64,11.71a3.24,3.24,0,0,1-1.22,2.53c-3.85,2.47-7.83,4.76-12.92,7.8.21-3.68.3-5.41.37-6.63-9.51,1.9-18.86,3.92-28.28,5.6-8.66,1.55-19.1-4.69-20-12.4-.34-2.85,1.13-6.5,2.95-8.88a36.39,36.39,0,0,1,9.24-8.14A65.79,65.79,0,0,1,605,831.12Zm-35.34,29.29a29,29,0,0,1,4.72.91c2.88,1,5.73,3.49,8.47,3.33,5.22-.32,10.43-1.83,15.52-3.28,6.89-2,8.94-5.16,8.58-12.24-.5-9.57-.5-9.57-9.74-10.12a8.26,8.26,0,0,1-1,0c-8.39-1.69-15.73.91-22.58,5.52-3.44,2.32-5.09,5.16-3.76,9.55C570.45,856,569.77,858.26,569.66,860.41Z"/><path class="cls-3" d="M1010.94,825.94a11.91,11.91,0,0,1-15,1.6c-4.31.5-7.51,1-10.72,1.23-7.27.49-14.57.68-21.83,1.28-4.53.37-6.07,3.78-4.25,7.86,1.19,2.67,1.67,5.65,2.75,8.38,3.69,9.32,11.25,16.12,20.31,16.83,8.31.66,18.34-.47,24.34-9.07a2.52,2.52,0,0,1,.64-.76c1.69-1,3.42-1.93,5.13-2.89a37.7,37.7,0,0,1-1,6c-2.19,6.65-7.68,9.07-13.89,10.7-8.84,2.32-17.81,3.3-26.8,1.87s-16.38-6.36-20-14.4c-4.95-11-3-22,4.91-31.42,8.7-10.36,20-16.45,33.29-18.84a4,4,0,0,1,2.38.35C1000.53,809.19,1008.62,814.92,1010.94,825.94Zm-39.08-2.11c7.42-5.67,16-.28,24.58-3.79-3.29-2.58-5.85-6.16-9-6.73-8.31-1.53-15.61,1.94-22.66,6.88Z"/><path class="cls-3" d="M467.13,848.62c.24,10.14,6.49,14.67,13.84,16,4.88.85,10.81-1.2,15.53-3.47,6-2.88,6.24-12.61,2-20.32l-13.68-2.61c-.44-.08-1.05-.25-1.32,0-5.6,4.3-11,.76-16.05-.91-5.79-1.9-7-5.73-4.86-11.5,4.19-11.2,23.43-22,35.13-19.85,1.43.27,3-.12,4.46,0,2.27.15,4.53.47,7.32.77-4.54,6.88-11.63,11.26-15.59,8.89s-7.54-1.81-11.21-1.2a18.21,18.21,0,0,0-8.14,3.63c-3.06,2.48-2.31,5.34,1.07,7.55a55,55,0,0,1,4.89,4c8.84-1.68,17.63-3.36,26.06,1.65A15.28,15.28,0,0,1,509.73,855a8.81,8.81,0,0,0-1.21,1.51c-8.61,14-22.33,15.86-36.64,14-4.62-.58-9-5.21-12.85-8.64-1-.88-.52-4.7.54-6.35C461.1,853.19,463.79,851.57,467.13,848.62Z"/><path class="cls-3" d="M651.77,815.42a32,32,0,0,0,2.47-2.14c5-5.67,12.1-6.21,18.84-7.21a24.65,24.65,0,0,1,16.63,2.86c6.48,3.79,8,13.71,2.14,18.63,3.4,2.09,4.5,4.61,3,8.76-.85,2.34.83,5.54,1.18,8.37.43,3.43.46,6.93,1,10.33,1,6.09-1.7,9.7-7.08,11.9a24.81,24.81,0,0,0-3.4,2c-3.12-3.55-2.45-9.67,1.82-15.33-9-4.83,1.49-7.29,1.17-11.61-3.16-1.33-5.29-3.47-4.67-7.87,1.22-8.72-2.39-15.85-8.07-21.4-3.59,1.13-7,2.39-10.58,3.2-1.14.27-2.53-.89-3.83-1-1.8-.12-3.81-.29-5.38.38-3.34,1.4-7.28,3.1-6.64,7.58s-.72,7.75-4.73,10.58c7.21,3,5.31,8.47,4.89,13.85a38.11,38.11,0,0,0,1.08,11.07c1,4.57-.33,7.27-4.85,8.65-1.82.55-3.44,1.76-6.15,3.21a44.9,44.9,0,0,1-.63-5.37c0-6.57.14-13.14.23-19.71a3.29,3.29,0,0,1,0-1c2.37-7.09-2.24-14.33.44-21.47.3-.78-.77-2.06-1.16-3.12-2-5.53,2-12.61,8-13.39,1-.12,2.68,1.7,3.24,3C651.44,810.86,651.39,812.89,651.77,815.42Z"/><path class="cls-3" d="M912.14,858.85c.25.36,2,1.82,1.69,2.59-.71,2-1.88,4.35-3.59,5.43-2.54,1.61-5.69,2.25-9.15,3.51.32-4.19-.4-8.41,1.18-11.41,1.41-2.66.66-4.49.38-6.71-.5-4-2-8.24,2.42-11.16-5.23-4-2.34-9.26-2.91-13.81-.4-3.13.43-6.72-.84-9.37-1.76-3.68-.36-5.71,2.09-7.54A102.37,102.37,0,0,1,912.2,805c.87,3.31,1.47,5.63,2.15,8.24,8.24-2.77,15.4-10,24.65-7.35,2.79.82,8.89-2.6,8.79,4.58-3.91,6-8.85,8.62-16.25,5.14-5.19-2.44-10,1.12-14.82,2.46-2.77.78-3.47,4-4.09,7.26-1.58,8.22,1.64,16,1.16,24C913.62,852.31,912.8,855.18,912.14,858.85Z"/><path class="cls-2" d="M1031.89,827.07c-1-1.54-2.18-2.76-2.57-4.19a44.63,44.63,0,0,1-1.16-7.74,3.39,3.39,0,0,1,.91-2.55,83,83,0,0,1,8.94-7c2.73-1.74,4.14-.07,3.87,2.7-.4,3.93-1.47,7.81-1.69,11.74-.19,3.37.52,6.78.64,10.18.36,9.57.8,19.13.75,28.7,0,2-1.56,4.38-3.13,5.75-2.66,2.3-5.91,3.92-8.9,5.83a90.5,90.5,0,0,1,.18-9.89c.52-4.4,1.66-8.74,2.26-13.14a10.63,10.63,0,0,0-.68-4.81C1029.29,837.18,1030.58,832,1031.89,827.07Z"/><path class="cls-3" d="M532.56,827.41a42.22,42.22,0,0,1-2.53-4.27,11.35,11.35,0,0,1-.24-2.46c-.42-2.53-2.12-5.89-1.09-7.41,2.16-3.17,5.68-5.47,8.81-7.91.85-.67,3-1.13,3.34-.72a6.41,6.41,0,0,1,1.08,3.91c-.09,2.46-.89,4.91-.87,7.37.16,13.3.36,26.61.8,39.9.21,6.34-5.27,12.8-13.55,14.13,3.73-7.43-.79-15.59,4.05-22.64.62-.9-.25-2.78-.36-4.21-.35-4.41-.8-8.82-.89-13.24C531.09,828.85,532.31,827.8,532.56,827.41Z"/><path class="cls-3" d="M728.05,772.27l-5.18,8.63c5.67,3.89,3.51,10.12,4,15.58.25,2.86-.17,5.78.13,8.63.71,6.76-4,12.67-9.72,11.9-2.77-.37-3.3-1.29-2.48-4.31,1.34-5,1.5-10.22,2.43-15.31.28-1.56,1.46-3,2.39-4.73-3.32-3.12-6.61-7.32-6-12.51C714.14,775.74,720.41,772.61,728.05,772.27Z"/><path class="cls-2" d="M529,782.34c.27-1,.22-2.33.84-3.09,3.72-4.57,7.5-9.1,11.49-13.43.61-.66,3.07-.72,3.55-.13.78,1,1.36,3.4.79,4-4.91,4.77-10.09,9.25-15.19,13.82Z"/><path class="cls-2" d="M1042.9,764.9c4,2.43,4,4.74.68,7.45-4.53,3.71-8.93,7.57-13.95,11.85C1029.19,779.23,1034.09,772.6,1042.9,764.9Z"/><path class="cls-4" d="M1348.68,279.75c-7.23,10-14.33,19.35-21,29-35,51-78.13,94.55-122.35,137.25-21.57,20.83-42.81,42-64.13,63.12-2.11,2.09-4,3.26-7.28,3-14.41-1.26-28.84-2.21-43.28-3.07-2.68-.15-3.39-1.24-3.54-3.59q-1.5-22.63-3.13-45.25c-.71-9.58-1.6-19.15-2.47-29.45l29.52,2.11c.15-.41.3-.81.44-1.21-1.18-.56-2.34-1.52-3.56-1.62-21.69-1.78-43.41-3.19-65.08-5.23-24.61-2.31-49.16-5.24-73.75-7.76q-31.7-3.26-63.42-6.16-39.67-3.64-79.39-7c-61.11-5.33-122.36-6.77-183.66-5.73-26.28.45-52.55,2.31-78.81,3.71-16.27.87-32.54,1.85-48.77,3.22-19.85,1.67-39.65,3.82-59.48,5.74-18,1.75-36,3.36-54,5.22-20.79,2.15-41.54,4.63-62.34,6.72-16,1.61-32.08,2.85-48.13,4.25-4.14.36-8.29.59-12.41,1.07-1,.11-1.9,1-2.84,1.48l.45,1.27,29.76-2.5c-.31,2.6-.68,5.13-.9,7.66q-1.62,19.37-3.17,38.73-1.16,14.16-2.24,28.32c-.21,2.82-1.45,3.82-4.42,4-10.77.71-21.52,1.71-32.27,2.76-4.8.47-8.66-.17-12.64-3.75-22.12-19.91-45.25-38.73-66.74-59.27-19.12-18.27-37.3-37.65-54.59-57.67-30.39-35.21-59.78-71.29-89.59-107l1-1.51c7.58,1.59,15.14,3.25,22.73,4.75,37,7.3,73.84,15.16,111,21.6,26.77,4.65,53.8,8.25,80.85,10.72,21,1.91,42.15,1.9,63.22,1.73,21.4-.17,42.8-1.2,64.16-2.55,22.87-1.45,45.69-3.8,68.55-5.58,15.74-1.23,31.5-2.15,47.25-3.22,18.08-1.23,36.16-2.6,54.24-3.66,15.29-.91,30.59-1.91,45.9-2.11,43.32-.56,86.64-1.14,130-.91,25.63.14,51.27,1.55,76.87,2.87s51.45,3.14,77.16,5,51.33,4.24,77,5.89q39,2.51,78,3.95c18.47.7,37,1.45,55.44.69,28.16-1.17,56.3-3.37,84.41-5.6,51-4.05,100.25-17.1,149.62-29.52,6.56-1.66,13.14-3.23,19.72-4.83A12.66,12.66,0,0,1,1348.68,279.75Z"/><path class="cls-5" d="M291.69,89l804.85,2.15q-43.92,95-87.73,189.74l-.95,0q-.9-20.52-1.79-41c-.32-7-.36-14.1-1.31-21-.24-1.8-3.47-4.44-5.3-4.41s-4.54,2.83-4.91,4.78c-.75,4-2.42,5.87-6.41,5.72l-76.83-2.72c-.52-12.57-1-24.88-1.54-37.18l-1.76-.13c-.58,3.75,0,7.64-.08,11.44,0,4.17-.08,8.34.08,12.5s.59,8.3.92,12.81h-6.56c-.52-12.64-1-25.13-1.55-37.62h-1.3v37.44l-134-5V180.89l-1.94,0v35.49h-8.36V180.72l-1.73,0v35.13H634.89V181.1H633v34.62l-7.11.37V181.14l-1.94,0v34.6l-136.43,4.53V185.15l-1.19-.14a32.68,32.68,0,0,0-.56,3.79c-.37,9.15-.8,18.3-1,27.46-.07,3.91-1.4,5.57-5.26,4.35V185.22l-1.57-.07c-.5,11.73-1,23.46-1.53,35.79l-80.91,3.3c-.9-3.39-1.26-6.64-2.68-9.33-.77-1.47-3.68-3.07-5-2.67-1.91.57-4.45,2.82-4.66,4.59-1.1,9.16-1.65,18.4-2.17,27.62-.65,11.58-1.09,23.17-2.81,34.95Z"/><path class="cls-6" d="M967.07,588.13,1101,598c6.31,98.45,4.16,197.13-1.66,296l-14.18,1.24c2-61.93,4-123.36,5.94-185.26h-5.31q-274.72-.44-549.45-.82c-79.49,0-159,.55-238.48.74-4.69,0-6.56,1.53-6.4,6.34,1.29,37.95,2.16,75.92,3.76,113.86.9,21.42,2.92,42.8,4.48,64.89-3.41,0-7,.34-10.52-.19-1.23-.19-3-2.45-3.08-3.87-4.95-67.94-8-136-7-204.09.45-29.64,1.89-59.26,2.9-88.88a8.06,8.06,0,0,1,.45-1.63c10.59-.76,21.17-1.49,31.75-2.27,21.23-1.57,42.45-3.19,63.68-4.74,14.93-1.1,29.86-2.12,44.79-3.18-4.27,6.1-8.58,12.17-12.76,18.34-.8,1.19-1.87,3.15-1.42,4.09,3.4,7.06,7.16,14,11.48,22.19l23.07-40v69.35l11.27.63V697l214.49-1.91V646.86H656.27l30.19-15.77v28.85l4.34.83v34.36L905.45,697v-37.6c13.74-2.42,17.52-6.72,17.68-20.63.14-11.48,0-23,0-34.44v-9.79h43.45C966.8,592.09,966.93,590.11,967.07,588.13Zm.88,67.58L927.62,654v43.38l161.88,1.77V660.26l-115.85-4.44,13.9-10.68c-12-14.25-23.83-28.31-35.92-42.69l-19.82,13.63c2.82,3.68,5.07,7.2,7.87,10.18C949,636.18,958.51,645.91,968,655.71Zm-673.38,43.2,143.74-1.63V653.86l-143.74,5.61Z"/><path class="cls-5" d="M1114.16,28.15c-4.57,12.51-9.07,25.05-13.76,37.52-2.38,6.33-5.19,12.48-7.64,18.78-1,2.67-2.5,3.63-5.5,3.61-31.83-.13-63.66-.08-95.49-.08-8.67,0-17.33,0-26,0q-90-.12-180-.26-147.19-.32-294.4-.74-48-.12-96-.26c-29.81-.13-59.62-.37-89.42-.51-2.47,0-4.15-.24-5.41-3-8.38-18.29-17-36.47-26-55.49,9.67,2.68,18.69,5.09,27.65,7.69,23.37,6.8,47,12.81,71.18,15.35,19,2,38.12,2.74,57.21,3.53q22.43.93,44.91.57c32.57-.51,65.08-1.91,97.26-7.62,23.14-4.1,46.31-8,69.47-12,2.56-.44,5.2-.44,8.62-.71-.21-3-.43-6-.65-9.26H736.5c.19.4.43.68.43,1,.19,10.13.19,10.07,13.51,11.79,25.33,3.26,50.6,7,76,9.77,19.63,2.13,39.38,3.6,59.12,4.39,27.42,1.1,54.89,1.94,82.33,1.7,31.12-.27,61.62-6,91.8-13.33q26.94-6.54,53.85-13.18Z"/><path class="cls-7" d="M690.8,660.77l-4.34-.83V631.09l-30.19,15.77-9.91,4L619,659.23c-2.29-3-4.09-5.33-5.88-7.68l-2.92-3.75-5.73-7.66c21.7-4.3,42.79-9.63,62.28-20.34H609.19v-18H686.1v-9.33H632.88V573.1c0-1,0-2.09,0-3.14,0-2.88,0-5.76,0-8.64,0-1,0-2.05,0-3.08v-13.8H610.38V526.18h22.49v-4.11c0-1,0-2,0-3.06,0-1.3,0-2.61.08-3.91,5.29.16,10.58.42,15.87.4,1.26,0,2.51-1,3.77-1.47,0-1-.08-2-.11-3.08.79-3-1.24-2.82-3.15-2.82H609.64V491.09l15.39-.91c6,.27,12,.7,18,.76a75,75,0,0,0,9-.95l.42-3.07,0-6.73-.15-2.41c.78-.41,1.56-1.2,2.33-1.18,8,.16,16.06.45,24.1.71l1.92,2.58c-3.49,1-5.68,2.9-4.47,7-.63,2.35.19,3.26,2.69,3.19,6-.17,11.91-.13,17.86-.17h10.13c3.72,0,7.45,0,11.17.14,2.29.08,3.47-.57,2.58-3.06l-.06-6.27,0-2.78c.88-.45,1.78-1.3,2.65-1.28,6.6.17,13.19.42,19.77.85a45.08,45.08,0,0,1,6.5,1.38l-2,2.18c-4.57.77-3,4.12-2.92,6.88,1.18.73,2.35,2.06,3.54,2.08,10.08.11,20.16,0,30.24-.07l9.06.2L788,493v15.1c-13.87,0-26.85.05-39.83-.05-2.89,0-4.66.47-3.66,3.86-1.08,3.21.49,4.11,3.41,4.09,5.29,0,10.57.07,15.86.12l-3.27,3.9-1.32,3.1c-.74,3,1.1,3.15,3.35,3.13,8.08-.06,16.16,0,24.28,0v18.26H759.22v18c-.15,1.43-.31,2.86-.45,4.22H683.22c-.14-2.09-.26-3.9-.39-5.72l0-3.08V544.74H657v13.19c0,1,0,2.07,0,3.1l0,8.64V573l0,1a10.69,10.69,0,0,0,3,1q54.68-.12,109.35-.33l12.42.59v17.17h-6.3q-28.5,0-57,0c-8.24,0-9.14,1-8.23,9.67h78.2V620.2H731.12l-.33,1.38c9.92,3.64,19.7,7.76,29.8,10.76s20.83,5,31.4,7.42l-6.89,9-2.41,3.41a10.71,10.71,0,0,0-1.75,2.41c-1.75,4.73-4.75,5.28-9.27,3.69-7.16-2.52-14.53-4.47-21.81-6.66l-9.24-3.86-30.54-17.85V651c-.17,3-.35,6.05-.52,9l-15,.85Zm17.09-116.24c-4.8-.75-2.62,3-2.76,4.75s-1.55,5.18,2.82,4.19l3.14-.08h24.57v-8.82H711.05Zm12.69-33.06c.54-2.14.26-3.59-2.49-3.41s-5.29.14-7.94.2l-3.2,0H697l-3.23,0c-4.9-.06-9.8-.07-14.7-.2-2.15-.06-3.62.28-2.91,2.93l0,3c.14,2.84-1.41,3.23-3.92,3.34-3.87.15-7.71.94-11.56,1.47l-3.66,3V526h25.87v-4.67l0-2.61.16-4.66,13.77-.14,14.6,1.56c-2.29,1.44-3.79,1.9-4.45,2.91a11.25,11.25,0,0,0-1.76,5c-.07.79,1.31,1.72,2,2.59h28.51v-3.78c-1.21-1-2.33-2.75-3.66-2.93a106.12,106.12,0,0,0-11.16-.46l-.36-4.65C720.59,513.27,720.58,512.37,720.58,511.47Z"/><path class="cls-6" d="M379.17,314.22c.74-9.24,1.41-17.67,2.11-26.5,6.17-.51,12.26-1.09,18.36-1.48,17.25-1.12,34.52-2.09,51.77-3.24s34.48-2.55,51.72-3.69c13-.86,25.91-1.75,38.87-2.18,39.78-1.33,79.56-3,119.35-3.47,31.8-.38,63.63.72,95.44,1.27,11.49.2,23,.54,34.45,1.12,23.26,1.18,46.5,2.56,69.75,3.87,12.12.69,24.25,1.31,36.35,2.13,17.42,1.18,34.82,2.55,52.23,3.77,11.44.8,22.89,1.48,34.35,2.19,7.12.44,14.25.83,21.85,1.26.6,8.44,1.2,16.82,1.82,25.62-5.32,0-10.56.26-15.77-.05-20.73-1.22-41.46-2.47-62.16-4-24.19-1.79-48.34-4.09-72.54-5.76-19.74-1.37-39.54-1.95-59.29-3.23-55.08-3.57-110.22-3.38-165.35-2.71-28.78.35-57.54,2.33-86.31,3.65-13.79.64-27.58,1.26-41.35,2.23-19.89,1.41-39.74,3.18-59.62,4.7C430.13,310.89,415,311.93,400,313,393.2,313.44,386.43,313.79,379.17,314.22Z"/><path class="cls-8" d="M967.07,588.13c-.14,2-.27,4-.44,6.43H923.18v9.79c0,11.48.09,23,0,34.44-.16,13.91-3.94,18.21-17.68,20.63l-2.91.7H882.36l-1.47-4.51c-.34-1.23-.67-2.46-1-3.69L876.12,640c6.69,0,13.16-.08,19.62,0,3.42.06,4.69-1.32,4.59-4.77-.19-7-.05-14-.05-21V594.66H856.55V580c0-1.06,0-2.12,0-3.18v-8.61c0-1,0-2.06,0-3.09q0-17.57,0-35.13c0-1,0-2.05,0-3.07,0-1.57.08-3.14.11-4.7l23.72-.34h12.73c.9-5.17,1.78-10.2,2.7-15.47H842.1V521c0,1.6,0,3.2,0,4.8v2.77L841.63,564c-.11,1-.21,2.1-.31,3.15l-.22,8.65-.12,3.1c-.29,1.63-.71,3.24-.84,4.88-1.76,22.62-5.51,44.82-13.72,66.1-.45,1.26-.91,2.53-1.37,3.79l-3.46,5.9-11.77-6.6-8.72-4.09a15.29,15.29,0,0,1,.75-2.79c10.5-21.78,14.34-45,15.42-68.92.13-1.07.27-2.13.4-3.2q.09-4.12.19-8.25l0-3q.15-17.88.28-35.75c0-1,0-2,0-3.06,0-1.61,0-3.22,0-4.84,0-1,0-2,0-3l.06-21c0-1,0-2.07,0-3.11l-.14-6.43,20.45-.67,68.85,0,2.7,0,9.53.05,2.49-.05h62.68v14.1c0,.91.06,1.83.1,2.75-.14,3.07-1.34,5.24-4.75,5.48l-35.79-.83-20.14,0-2.33,3c-1.56,4.08-3.13,8.15-4.81,12.5h49.63c.17,3.19.3,5.64.44,8.09,0,1,0,1.92,0,2.87,0,1.4,0,2.8,0,4.19,0,1,0,2,0,3q0,17.25,0,34.49l0,2.63c0,2.66,0,5.33,0,8Zm-37.23-21.52h-2.91l-9.16.09-2.8-.2c-6.48-.1-13-.33-19.44-.27-5.4,0-10.79.43-16.19.67-.06,1.05-.11,2.1-.17,3.15v7c20.71,0,41,0,61.31-.08.81,0,1.62-1.22,2.44-1.87l0-2.8v-5.72ZM924.9,540H879.32v9.86h34.24l2.52,0,9.69,0,2.35,0h14.76V540h-18Z"/><path class="cls-5" d="M678.73,477.31c-8-.26-16.07-.55-24.1-.71-.77,0-1.55.77-2.33,1.18-9.8.16-19.61.07-29.39.52-24.37,1.11-48.73,2.47-73.09,3.73-.07-1.23-.15-2.46-.23-3.83l-23.26-1.46c-.17,3-.29,5.1-.41,7.22l-33.23,3.13c2.52-25.95,5-51.62,7.59-78.13C564,403,628,400,692.63,400.06v77.25Z"/><path class="cls-5" d="M907.33,484.87l-68.85,0a13.11,13.11,0,0,0-2.76-.79q-43.11-2.64-86.22-5.2a45.08,45.08,0,0,0-6.5-1.38c-6.58-.43-13.17-.68-19.77-.85-.87,0-1.77.83-2.65,1.28h-11c-.54-25.82-1.08-51.47-1.63-77.34,64.38.76,127.94,5.75,192,12Q903.66,448.86,907.33,484.87Z"/><path class="cls-5" d="M425.92,494.05c-11.72,1.05-23.45,2-35.16,3.19-11.22,1.12-22.41,2.5-33.62,3.68q-18.56,1.95-37.12,3.72c-2.44.23-4.92,0-7.58,0,2.3-25.73,4.59-51.29,6.94-77.58l163.56-16.85c-.36,4.25-.63,8.14-1,12q-2.6,26-5.25,52a13.88,13.88,0,0,1-.68,2.4Z"/><path class="cls-5" d="M984.73,498.93v-14.1H922.05q-2.28-21.76-4.56-43.53c-.93-8.88-1.82-17.77-2.78-27.19l153.5,15.65c2.1,25.51,4.22,51.37,6.4,77.77-8.17-.63-15.87-1.12-23.54-1.86-11.72-1.14-23.42-2.48-35.14-3.68C1005.54,500.93,995.13,500,984.73,498.93Z"/><path class="cls-9" d="M381.57,284.85c1-21.16,2-41.73,3-62.57h8.1c.12,1.28.23,2.53.35,3.88a5.61,5.61,0,0,0,1.43.33c23-.82,45.92-1.56,68.88-2.51,27.1-1.13,54.2-2.47,81.3-3.65,11.14-.48,22.29-1,33.45-1.13,54.14-.43,108.28-1.13,162.42-.89,32.79.15,65.58,1.69,98.37,2.88,31.6,1.14,63.19,2.68,94.78,3.95q27.95,1.11,55.91,1.87c2.13.06,4.64,1.23,6.27-2.09.48-1,4.56-.15,7.37-.15.79,20.61,1.57,41,2.37,62.06-7.38-.38-14.95-.67-22.5-1.17-12.1-.81-24.19-1.8-36.29-2.65q-28.1-2-56.2-3.87Q873.14,278,855.7,277q-36.87-2-73.76-3.81c-10.81-.53-21.63-1.11-32.45-1.14-46.31-.13-92.62-.54-138.92.12-30.44.43-60.86,2.3-91.28,3.9-26.06,1.37-52.09,3.21-78.13,5-16.74,1.14-33.47,2.56-50.21,3.76C387.83,285.05,384.68,284.85,381.57,284.85Zm99.81-12.41,143.38-6.57V239.76L483.17,245.4C482.53,255.19,482,263.8,481.38,272.44Zm422.35-25.52-138.54-6.33v26.18l140.12,7.45C904.78,265.08,904.27,256.34,903.73,246.92Zm-420.34-5.51L625.11,236c.24-5.15.45-9.89.69-15.11l-141.57,4.89C483.93,231.42,483.66,236.37,483.39,241.41Zm419.5-14.35-138.68-5.48V236.7l138.68,6.18ZM757.22,240.47H631.72v25.88h125.5ZM632.3,221.59v14.84H756.77c-.29-4.73-.58-9.48-.9-14.84Zm283.56,26.27c.68,9.45,1.32,18.32,2,27.63l81.29,5c-.51-10-1-19.25-1.45-28.6Zm-443.17-1.54c-10.68.57-20.95,1.16-31.23,1.66-15,.72-29.92,1.44-44.88,2-3.15.12-4.41,1.41-4.52,4.5-.25,6.82-.73,13.62-1,20.44a24,24,0,0,0,.41,3.78l79.46-5.16C471.5,264.33,472.08,255.54,472.69,246.32Zm443.18-2.42L997,247.56V230.91l-82.2-3C915.14,233.45,915.49,238.39,915.87,243.9Zm-442-17.33L393.22,230v16.39l79.53-4C473.12,236.86,473.45,232.09,473.83,226.57Z"/><path class="cls-7" d="M425.92,494.05,476,476.65l2.9,2.29,9.39,8.46,3.28,2.77,2.8,3.27-17.53,6.68-3,1-7.69,2.29v19.44c0,.87,0,1.75,0,2.62v5.68l19.67,1.53h2.71l1.55.2c.2,5.84.2,11.7.67,17.52.26,3.19-1.28,4-3.85,4.2l-3,0-11.85-.07-3.11,0a27.79,27.79,0,0,0-2.73.81c.52,2.64,1.22,5.24,1.9,7.85l2.76,2.69,12.24,12.24,2.95,3,7.5,8.58L480.86,608.4l-14.69-22.83v67.19c0,1.13,0,2.25,0,3.38-.17,1.38-.35,2.77-.49,3.91l-8.22.91-3.09-.21-11.27-.63V590.77l-23.07,40c-4.32-8.23-8.08-15.13-11.48-22.19-.45-.94.62-2.9,1.42-4.09,4.18-6.17,8.49-12.24,12.76-18.34.67-1,1.34-2.08,2-3.12l4.59-8.79c.52-1,1-2,1.57-3,2.61-5.37,5.21-10.73,8.21-16.89H410.82V535.61c-.3-3.16,1.91-2.75,3.87-2.74h28.12v-23l-26.38,5.5L412.9,507l-1.14-3c-.81-1.95-1.63-3.89-2.44-5.83Z"/><path class="cls-8" d="M525.92,484c.12-2.12.24-4.25.41-7.22l23.26,1.46c.08,1.37.16,2.6.23,3.83-.13,1-.27,2-.41,3l0,6.68c0,.82,0,1.65,0,2.47v21.67l0,2.92v4.34c0,1,0,2,0,3v36.46c4.62,1,5.86-1.1,6.66-3.92q4.74-16.77,9.54-33.51c.18-1,.35-2,.53-3.07.3-1.37.59-2.75.89-4.12l-.1.09a5.06,5.06,0,0,0,.62-.68c.13-.87.27-1.73.4-2.6,1.07-3,2.74-1.43,4.32-.56l4.25,2.93,5.58,4.06,4,3,6.17,5.15-14.83,31.25-1.42,3.16-4.81,8.51-2.09,3.49-1.16.09-6.37-3L551.05,566c.63,2.29,1.33,4.86,2,7.43l.93,3c6.67,25.64,20.11,46.7,42,61.94L589.64,648l-2.56,4-5.59,8.24-10.08-7.71-4.12-3.71a127.65,127.65,0,0,1-27-47.66c-.68-2.22-1.34-4.46-2.39-8-5.78,23.2-16.47,42-32.52,57.63l-4.45,3.95-8.29,5.3-2.91-5c-.73-1.11-1.45-2.22-2.17-3.33-2.75-4.15-5.49-8.3-8.43-12.77,1.59-1.12,3.36-2.32,5.07-3.59,19.49-14.4,31.89-33.52,37.73-57,.32-1.07.63-2.14.94-3.21.61-2.73,1.23-5.47,1.84-8.21l.22-3.14q.46-17.74.9-35.49c0-.17-.51-.35-.78-.52l.9-7.71c0-.83,0-1.66-.05-2.48l0-21.63c0-.92,0-1.83,0-2.74V484Z"/><path class="cls-10" d="M429.36,574.21,424.77,583c-14.92,1.09-29.84,2.13-44.76,3.27-10.94.84-21.86,1.87-32.8,2.67q-33.33,2.46-66.66,4.73c-11.62.79-23.24,1.53-34.87,2.09-17.46.84-34.92,1.5-52.38,2.23-1.63.06-3.26,0-5.68,0,1-27,2.09-53.74,3.16-81,9.44-.65,18.51-1.23,27.56-1.92,26-2,52-3.85,78-6,22.5-1.87,45-4,67.44-6.16,15.19-1.46,30.35-3.17,45.52-4.77.81,1.94,1.63,3.88,2.44,5.83-11.35,1.31-22.69,2.76-34.06,3.89-18.3,1.84-36.63,3.44-54.95,5.2-4.54.43-9.07,1.09-13.5,1.64-.66,8.9-1.29,17.27-1.92,25.72,4.13-.25,7.93-.37,11.71-.72q24.75-2.29,49.51-4.71,17.58-1.68,35.15-3.37,19.56-1.85,39.12-3.65v4.87H414.7c-2,0-4.17-.42-3.87,2.74l-103.91,9.67c-.88,12.83-1.75,25.55-2.69,39.21ZM298.44,546.16l-105.79,7.12v37.58L295.9,585.1C296.76,571.89,297.58,559.32,298.44,546.16Zm-104.14,2.6,104.46-7.08c.75-9.32,1.44-17.84,2.09-26L194.3,523.39Z"/><path class="cls-10" d="M967.08,585.15c0-2.66,0-5.33,0-8l115.18,9.22c-.85-13.57-1.65-26.26-2.47-39.12-7.46-.55-14.73-1-22-1.64q-25.3-2.24-50.59-4.65c-13.38-1.27-26.76-2.65-40.14-4,0-1.39,0-2.79,0-4.19L1079.38,543c-.59-9.06-1.13-17.46-1.69-26.12-8.92-.73-17.53-1.35-26.13-2.17q-24.29-2.29-48.55-4.79c-7.66-.79-15.29-1.84-22.93-2.77,3.41-.24,4.61-2.41,4.75-5.48,70.07,7,140.17,13.87,210.8,16.22.84,27.16,1.65,53.75,2.48,80.71-6.57,0-13,.22-19.38,0q-27.2-1.12-54.37-2.6c-21.1-1.17-42.18-2.51-63.27-3.83-15.93-1-31.87-2-47.79-3.2C997.88,587.79,982.48,586.42,967.08,585.15Zm226.32-29.87-105.85-7.12c.86,13.16,1.7,25.87,2.56,39l103.29,5.73Zm-2-30.76L1085.87,518c.71,8.79,1.38,17.14,2.09,25.91l103.42,5.94Z"/><path class="cls-11" d="M488.28,487.4l-9.39-8.46q3.36-34.31,6.74-68.58L497.44,409c-1,10.65-1.85,20.81-2.83,31-1.18,12.19-2.31,24.39-3.72,36.56C490.46,480.18,489.17,483.77,488.28,487.4Z"/><path class="cls-12" d="M705.35,477.72l-8.9-.46v-76.8h8.9Z"/><path class="cls-10" d="M525.92,487v6.33L489,496.58c-.83,9.18-1.63,18-2.44,26.95L497,523l-.12,4.54-10.61.7c-.15,1.57-.29,3-.42,4.44l-19.67-1.53v-5.68l8.16-.75c.84-8.26,1.67-16.44,2.5-24.62l17.53-6.68-2.8-3.27Z"/><path class="cls-12" d="M919.56,484.88l-9.53-.05q-2.32-22-4.64-44.06c-.93-9.06-1.79-18.12-2.75-27.89l9.38.89Z"/><path class="cls-12" d="M310,505.72h-8.39q3.31-38.58,6.66-77.38l8.79-1.36C314.71,453.36,312.37,479.43,310,505.72Z"/><path class="cls-12" d="M1085.34,508.56l-8.42-.79q-3.14-38.46-6.32-77.56h8.6Z"/><path class="cls-9" d="M676.18,486.85c-1.21-4.06,1-5.93,4.47-7l39.9.8.06,6.27c-3.75,0-7.52-.17-11.24.15-.91.08-1.68,1.81-2.51,2.77H696.73c.35-2.47-.84-3.06-3.14-3C687.79,487,682,486.87,676.18,486.85Z"/><path class="cls-5" d="M1113.52,27.33l1.2.22-.56.6Z"/><path class="cls-13" d="M973.65,655.82l115.85,4.44v38.89l-161.88-1.77V654L968,655.71Zm-43,38.17,156.47,2V663.2l-156.47-5.53Z"/><path class="cls-8" d="M973.65,655.82l-5.7-.11c-9.44-9.8-19-19.53-28.27-29.45-2.8-3-5-6.5-7.87-10.18l19.82-13.63c12.09,14.38,23.93,28.44,35.92,42.69Z"/><path class="cls-13" d="M454.39,660.75l3.09.21v32.45l207.59-2.06V650.91H646.36l9.91-4h12.61v48.27L454.39,697Z"/><path class="cls-13" d="M294.57,698.91V659.47l143.74-5.61v43.42Zm2.64-3.19,138.14-1.82V657.4l-138.14,5Z"/><path class="cls-13" d="M902.54,660.12l2.91-.7V697L690.8,695.13V660.77l3.72.13v30.45l208,2Z"/><path class="cls-6" d="M646.36,650.91h18.71v40.44l-207.59,2.06V661l8.22-.91c.14-1.14.32-2.53.49-3.91l23.55-1,2.91,5,8.29-5.3,70.47-2.25,10.08,7.71,5.59-8.24,26-.45c1.79,2.35,3.59,4.69,5.88,7.68Z"/><path class="cls-6" d="M902.54,660.12V693.4l-208-2V660.9l15-.85c.17-3,.35-6,.52-9l39.79.56c7.27,2.19,14.64,4.14,21.8,6.66,4.52,1.59,7.52,1,9.27-3.69a11,11,0,0,1,1.74-2.41l27.14.79,11.77,6.6,3.46-5.9,26.62.91,3.79,2.89,3.61-2.67,21.82.84,1.47,4.51Z"/><path class="cls-14" d="M589.64,648l6.42-9.65c-21.93-15.24-35.37-36.3-42-61.94l14-.57,1.16-.09,63.73-2.64v19.32H686.1v9.33H609.19v18h57.55c-19.49,10.71-40.58,16-62.28,20.34l5.73,7.66Z"/><path class="cls-15" d="M817.27,577.14c-1.08,23.88-4.92,47.14-15.42,68.92a15.29,15.29,0,0,0-.75,2.79l-16-.11,6.89-9c-10.57-2.45-21.15-4.38-31.4-7.42s-19.88-7.12-29.8-10.76l.33-1.38h57.33V602.05h-78.2c-.91-8.65,0-9.67,8.23-9.67q28.5,0,57,0h6.3c0-6,0-11.58,0-17.17Z"/><path class="cls-16" d="M818.18,527q-.13,17.88-.28,35.75c-3.64-.26-7.28-.56-10.92-.76q-23.88-1.32-47.76-2.58V544.53h27.63V526.27c-8.12,0-16.2,0-24.28,0-2.25,0-4.09-.1-3.35-3.13,6.28.3,12.57.52,18.85.94C791.45,525,804.81,526,818.18,527Z"/><path class="cls-16" d="M549.42,515.88V494.21c3.49-.15,7-.28,10.46-.46l49.76-2.66v17.05h39.68c1.91,0,3.94-.18,3.15,2.82l-80.2,3.27c-1.58-.87-3.25-2.48-4.32.56Z"/><path class="cls-16" d="M577.48,560.58q7.41-15.65,14.82-31.25l-6.17-5.15,46.74-2.11v4.11H610.38v18.26h22.48v13.8Z"/><path class="cls-10" d="M817.86,565.69q-.11,4.13-.19,8.25c-18.1-1-36.2-2.43-54.31-2.83-35.45-.79-70.91-1-106.36-1.44l0-8.64,25.86,0c.13,1.82.25,3.63.39,5.72h75.55c.14-1.36.3-2.79.45-4.22,4.31.19,8.63.33,12.93.57Q795,564.34,817.86,565.69Z"/><path class="cls-16" d="M818.18,495.06l-.06,21L744.54,512c-1-3.39.77-3.88,3.66-3.86,13,.1,26,.05,39.83.05V493Z"/><path class="cls-10" d="M549.43,491.74c0-2.23,0-4.46,0-6.68,6.63-.39,13.25-.85,19.89-1.15q41.57-1.91,83.15-3.72c0,2.24,0,4.49,0,6.73-21.76.71-43.53,1.24-65.28,2.18C574.59,489.64,562,490.84,549.43,491.74Z"/><path class="cls-17" d="M657,569.67c35.45.45,70.91.65,106.36,1.44,18.11.4,36.21,1.85,54.31,2.83-.13,1.07-.27,2.13-.4,3.2l-35.48-1.94-12.43-.59-40.14-1.42L657,573Z"/><path class="cls-12" d="M571.24,572.25l4.81-8.51,56.83-2.42c0,2.88,0,5.76,0,8.64Z"/><path class="cls-10" d="M818,485.52c.05,2.14.09,4.29.14,6.43l-30.8-1.82-9.06-.2-33.78-2c-.12-2.76-1.65-6.11,2.92-6.88,3.63.32,7.26.74,10.89,1Q788.19,483.8,818,485.52Z"/><path class="cls-18" d="M657,557.93V544.74h25.9V557.9Z"/><path class="cls-19" d="M652.45,480.19q-41.58,1.85-83.15,3.72c-6.64.3-13.26.76-19.89,1.15.14-1,.28-2,.41-3,24.36-1.26,48.72-2.62,73.09-3.73,9.78-.45,19.59-.36,29.39-.52Z"/><path class="cls-1" d="M549.43,491.74c12.58-.9,25.16-2.1,37.76-2.64,21.75-.94,43.52-1.47,65.28-2.18l-.42,3.07-27,.19-15.39.91-49.76,2.66c-3.49.18-7,.31-10.46.46C549.42,493.39,549.43,492.56,549.43,491.74Z"/><path class="cls-9" d="M818.13,519.07c0,1.62,0,3.23,0,4.84-11.77-.72-23.54-1.4-35.31-2.17-7.44-.49-14.86-1.12-22.29-1.68l3.27-3.9c2.34,0,4.67-.2,7-.06C786.58,517.05,802.35,518.07,818.13,519.07Z"/><path class="cls-18" d="M710.08,647.11V629.88l30.55,17.85Z"/><path class="cls-9" d="M582.1,521.21l-5.58-4.06L628,514.9l4.92.2c0,1.3-.06,2.61-.08,3.91Z"/><path class="cls-20" d="M711.05,544.57h24.61v8.82H711.09C711.08,550.45,711.06,547.51,711.05,544.57Z"/><path class="cls-21" d="M818,485.52q-29.85-1.75-59.69-3.52c-3.63-.22-7.26-.64-10.89-1l2-2.18q43.11,2.58,86.22,5.2a13.11,13.11,0,0,1,2.76.79Z"/><path class="cls-22" d="M628,514.9l-51.5,2.25-4.25-2.93,80.2-3.27c0,1,.07,2.05.11,3.08Z"/><path class="cls-19" d="M818.13,519.07c-15.78-1-31.55-2-47.33-3-2.32-.14-4.65,0-7,.06-5.29,0-10.57-.15-15.86-.12-2.92,0-4.49-.88-3.41-4.09l73.58,4.15C818.12,517.09,818.12,518.08,818.13,519.07Z"/><path class="cls-21" d="M571.24,572.25,632.86,570c0,1,0,2.1,0,3.14l-63.73,2.64Z"/><path class="cls-21" d="M632.88,561.32l-56.83,2.42,1.42-3.16,55.39-2.34C632.87,559.27,632.88,560.3,632.88,561.32Z"/><path class="cls-21" d="M817.86,565.69q-22.86-1.32-45.71-2.64c-4.3-.24-8.62-.38-12.93-.57v-3.1Q783.1,560.67,807,562c3.64.2,7.28.5,10.92.76C817.89,563.71,817.87,564.7,817.86,565.69Z"/><path class="cls-22" d="M760.54,520.06c7.43.56,14.85,1.19,22.29,1.68,11.77.77,23.54,1.45,35.31,2.17,0,1,0,2,0,3.06-13.37-1-26.73-2-40.11-2.87-6.28-.42-12.57-.64-18.85-.94Z"/><path class="cls-23" d="M707.26,526c-.72-.87-2.1-1.8-2-2.59a11.25,11.25,0,0,1,1.76-5c.66-1,2.16-1.47,4.45-2.91l-14.6-1.56c0-1.88.11-3.76.17-5.64H707v5.88h13.64l.36,4.65H707.26Z"/><path class="cls-21" d="M582.1,521.21l50.76-2.2c0,1,0,2,0,3.06l-46.74,2.11Z"/><path class="cls-21" d="M710.08,647.11l30.55.62,9.23,3.86L710.08,651Z"/><path class="cls-24" d="M729.22,573.19l40.14,1.42q-54.68.18-109.35.33a10.69,10.69,0,0,1-3-1q33.72,0,67.42-.05A32.16,32.16,0,0,0,729.22,573.19Z"/><path class="cls-9" d="M682.87,521.35V526H657v-4.24Z"/><path class="cls-21" d="M707.26,526v-7.18H721a106.12,106.12,0,0,1,11.16.46c1.33.18,2.45,1.91,3.67,2.93h-25V526Z"/><path class="cls-11" d="M710.8,526v-3.78h25c0,1.14,0,2.28,0,3.78Z"/><path class="cls-17" d="M589.64,648l20.55-.19,2.92,3.75-26,.45Z"/><path class="cls-17" d="M785.1,648.74l16,.11,8.72,4.09-27.14-.79C783.49,651,784.29,649.88,785.1,648.74Z"/><path class="cls-22" d="M787.37,490.13l30.8,1.82c0,1,0,2.07,0,3.11L788,493Z"/><path class="cls-25" d="M657,557.93l25.9,0,0,3.08L657,561C657,560,657,559,657,557.93Z"/><path class="cls-25" d="M697,508.3c-.06,1.88-.12,3.76-.17,5.64l-13.77.14-6.93-.13,0-3c5,0,9.91.16,14.85-.1,1-.05,1.84-1.71,2.76-2.63Z"/><path class="cls-6" d="M729.22,573.19a32.16,32.16,0,0,1-4.83.71Q690.69,574,657,574l0-1Z"/><path class="cls-26" d="M676.14,514l6.93.13c-.05,1.56-.11,3.11-.16,4.66l-22.25,0c3.85-.53,7.69-1.32,11.56-1.47C674.73,517.18,676.28,516.79,676.14,514Z"/><path class="cls-17" d="M660.66,518.76l22.25,0,0,2.61-25.87.43Z"/><path class="cls-25" d="M676.18,486.85c5.8,0,11.61.13,17.41,0,2.3-.05,3.49.54,3.14,3-6,0-11.91,0-17.86.17C676.37,490.11,675.55,489.2,676.18,486.85Z"/><path class="cls-20" d="M693.78,508.26c-.92.92-1.79,2.58-2.76,2.63-4.94.26-9.9.11-14.85.1-.71-2.65.76-3,2.91-2.93C684,508.19,688.88,508.2,693.78,508.26Z"/><path class="cls-21" d="M720.59,514.17H707v-5.88l3.2,0c.86.95,1.61,2.54,2.62,2.74a54.7,54.7,0,0,0,7.81.47C720.58,512.37,720.59,513.27,720.59,514.17Z"/><path class="cls-21" d="M744.53,487.92l33.78,2c-10.08.05-20.16.18-30.24.07C746.88,490,745.71,488.65,744.53,487.92Z"/><path class="cls-25" d="M706.86,489.88c.83-1,1.6-2.69,2.51-2.77,3.72-.32,7.49-.15,11.24-.15.89,2.49-.29,3.14-2.58,3.06C714.31,489.9,710.58,489.92,706.86,489.88Z"/><path class="cls-20" d="M720.58,511.47a54.7,54.7,0,0,1-7.81-.47c-1-.2-1.76-1.79-2.62-2.74,2.65-.06,5.3,0,7.94-.2S721.12,509.33,720.58,511.47Z"/><path class="cls-26" d="M628,514.9l24.56-.87c-1.26.52-2.51,1.47-3.77,1.47-5.29,0-10.58-.24-15.87-.4Z"/><path class="cls-25" d="M711.05,544.57c0,2.94,0,5.88,0,8.82l-3.14.08-.06-8.94Z"/><path class="cls-26" d="M707.89,544.53l.06,8.94c-4.37,1-3-2.46-2.82-4.19S703.09,543.78,707.89,544.53Z"/><path class="cls-2" d="M625,490.18l27-.19a75,75,0,0,1-9,.95C637,490.88,631,490.45,625,490.18Z"/><path class="cls-6" d="M967.09,574.53V540c13.86,1.33,27.72,2.74,41.59,4,17.19,1.51,34.39,2.81,51.58,4.27,5.87.49,11.71,1.18,17.44,1.77.7,11.29,1.35,21.86,2.06,33.35Z"/><path class="cls-6" d="M967.08,529.93c-.14-2.45-.27-4.9-.44-8.09H926l-1.8-15.54,20.13,0c1.63.23,3.25.51,4.88.67,11.23,1.13,22.47,2.22,33.69,3.37,15,1.53,30,3.18,45.06,4.63s30.11,2.67,45.14,4.16a3.92,3.92,0,0,1,2.68,2.61c.58,5.91.8,11.85,1.18,18.25-8.26-.71-16.15-1.36-24-2-12.75-1.12-25.49-2.2-38.22-3.4C998.79,533.08,982.94,531.49,967.08,529.93Z"/><path class="cls-15" d="M826.42,649.85c8.21-21.28,12-43.48,13.72-66.1.13-1.64.55-3.25.84-4.88L856.55,580v14.68h43.73v19.63c0,7-.14,14,.05,21,.1,3.45-1.17,4.83-4.59,4.77-6.46-.11-12.93,0-19.62,0l3.76,11.92-17.67-.8c8.66-13.27,17.32-26.53,26.18-40.12l-21.87-10.59C859.79,617,850,631,836.3,642.23l10.62,8.53Z"/><path class="cls-16" d="M842.1,518V506.39h53.74c-.92,5.27-1.8,10.3-2.7,15.47H880.42a28.55,28.55,0,0,0-3.72-.85Q859.41,519.45,842.1,518Z"/><path class="cls-19" d="M967.09,574.53l112.66,8.85c-.71-11.49-1.36-22.06-2.06-33.35-5.73-.59-11.57-1.28-17.44-1.77-17.19-1.46-34.39-2.76-51.58-4.27-13.87-1.21-27.73-2.62-41.59-4,0-1,0-2,0-3,13.38,1.33,26.76,2.71,40.14,4q25.29,2.4,50.59,4.65c7.25.64,14.52,1.09,22,1.64.82,12.86,1.62,25.55,2.47,39.12l-115.18-9.22C967.07,576.29,967.08,575.41,967.09,574.53Z"/><path class="cls-19" d="M967.08,529.93c15.86,1.56,31.71,3.15,47.58,4.64,12.73,1.2,25.47,2.28,38.22,3.4,7.88.69,15.77,1.34,24,2-.38-6.4-.6-12.34-1.18-18.25a3.92,3.92,0,0,0-2.68-2.61c-15-1.49-30.1-2.71-45.14-4.16s-30-3.1-45.06-4.63c-11.22-1.15-22.46-2.24-33.69-3.37-1.63-.16-3.25-.44-4.88-.67l35.8.83c7.64.93,15.27,2,22.93,2.77q24.25,2.51,48.55,4.79c8.6.82,17.21,1.44,26.13,2.17.56,8.66,1.1,17.06,1.69,26.12L967.09,532.8C967.09,531.85,967.08,530.89,967.08,529.93Z"/><path class="cls-16" d="M841.63,564l.48-35.36L856.54,530q0,17.56,0,35.13Z"/><path class="cls-12" d="M917.77,566.7l9.16-.09c.25,2.41.49,4.82.76,7.36l15.23,1.16c-.82.65-1.63,1.86-2.44,1.87-20.3.1-40.6.08-61.31.08v-7l38.9,3.13C918,570.67,917.86,568.68,917.77,566.7Z"/><path class="cls-4" d="M913.56,549.88H879.32V540h33.52Z"/><path class="cls-5" d="M927.29,540h15.59v9.83H928.12C927.84,546.57,927.57,543.29,927.29,540Z"/><path class="cls-23" d="M841.1,575.77c.07-2.89.15-5.77.22-8.65l15.27,1.07v8.61Z"/><path class="cls-19" d="M917.77,566.7c.09,2,.19,4,.3,6.48l-38.9-3.13c.06-1,.11-2.1.16-3.15L915,570.21V566.5Z"/><path class="cls-13" d="M826.42,649.85l20.5.91,4.75,3.79-26.62-.91C825.51,652.38,826,651.11,826.42,649.85Z"/><path class="cls-26" d="M915,566.5v3.71l-35.64-3.31c5.41-.24,10.8-.62,16.2-.67C902,566.17,908.49,566.4,915,566.5Z"/><path class="cls-11" d="M925.77,549.86l-9.69,0c-.28-3.28-.57-6.55-.85-9.83h9.67Z"/><path class="cls-21" d="M842.1,518q17.31,1.5,34.6,3a28.55,28.55,0,0,1,3.72.85l-23.73.34L842.1,521Z"/><path class="cls-20" d="M929.84,566.61h13.1v5.71l-12.75-.88C930.05,569.49,930,568.05,929.84,566.61Z"/><path class="cls-22" d="M862.21,651.12l17.67.8c.34,1.23.67,2.46,1,3.69l-21.82-.84Z"/><path class="cls-23" d="M842.1,521l14.59,1.16c0,1.56-.07,3.13-.11,4.7l-14.47-1.06C842.11,524.24,842.1,522.64,842.1,521Z"/><path class="cls-22" d="M929.84,566.61c.11,1.44.21,2.88.35,4.83l12.75.88c0,.94,0,1.88,0,2.81L927.69,574c-.27-2.54-.51-5-.76-7.36Z"/><path class="cls-22" d="M841.1,575.77l15.49,1c0,1.06,0,2.12,0,3.18L841,578.87Z"/><path class="cls-22" d="M856.59,568.19l-15.27-1.07c.1-1,.2-2.1.31-3.15l14.92,1.13C856.56,566.13,856.58,567.16,856.59,568.19Z"/><path class="cls-13" d="M842.11,525.84l14.47,1.06c0,1,0,2.05,0,3.07l-14.43-1.36Z"/><path class="cls-22" d="M924.15,506.3l1.8,15.54h-3l-1.17-12.5Z"/><path class="cls-23" d="M921.82,509.34l1.17,12.5h-6C918.69,517.49,920.26,513.42,921.82,509.34Z"/><path class="cls-13" d="M925.77,549.86,924.9,540h2.39c.28,3.28.55,6.56.83,9.83Z"/><path class="cls-21" d="M915.23,540c.28,3.28.57,6.55.85,9.83l-2.52,0-.72-9.86Z"/><path class="cls-21" d="M481.38,272.44c.58-8.64,1.15-17.25,1.79-27l141.59-5.64v26.11Zm141.36-30.38-137.27,5.49c-.51,8.16-1,15.22-1.42,22.47l137.72-6.21C622.08,256.81,622.38,250,622.74,242.06Z"/><path class="cls-19" d="M903.73,246.92c.54,9.42,1,18.16,1.58,27.3l-140.12-7.45V240.59ZM768.12,264.7l134.7,7.14c-.54-7.85-1.05-15.12-1.58-22.77l-134.36-6.22C767.32,250.59,767.71,257.51,768.12,264.7Z"/><path class="cls-21" d="M483.39,241.41c.27-5,.54-10,.84-15.65l141.57-4.89c-.24,5.22-.45,10-.69,15.11Zm139.38-18.2-136.31,4.71V239l136.31-5.15Z"/><path class="cls-19" d="M902.89,227.06v15.82L764.21,236.7V221.58Zm-3,2.15-133.56-5.34c.31,4.24.55,7.5.79,10.76l133.92,5.87C900.67,236.65,900.32,233.2,899.91,229.21Z"/><path class="cls-25" d="M757.22,240.47v25.88H631.72V240.47ZM634.46,264.3H755.09c-.33-6.93-.67-14-1.05-21.64H634.46Z"/><path class="cls-25" d="M632.3,221.59H755.87c.32,5.36.61,10.11.9,14.84H632.3Zm121.44,2.1H635.14v10.38h118.6Z"/><path class="cls-19" d="M915.86,247.86l81.84,4.07c.47,9.35.94,18.58,1.45,28.6l-81.29-5C917.18,266.18,916.54,257.31,915.86,247.86Zm79.91,6.41-77.06-3.93c.48,7.71.95,15.1,1.44,23L995.77,278Z"/><path class="cls-21" d="M472.69,246.32c-.61,9.22-1.19,18-1.8,27.24l-79.46,5.16a24,24,0,0,1-.41-3.78c.31-6.82.79-13.62,1-20.44.11-3.09,1.37-4.38,4.52-4.5,15-.58,29.92-1.3,44.88-2C451.74,247.48,462,246.89,472.69,246.32Zm-79,29.46c3.76,0,7.07.17,10.36,0,8-.5,15.91-1.25,23.87-1.75,12.45-.79,24.9-1.4,37.35-2.24,1.22-.08,3.34-1.16,3.42-1.93.64-6.85.91-13.74,1.32-21.07l-75,4C394.52,260.71,394.1,268,393.65,275.78Z"/><path class="cls-1" d="M915.87,243.9c-.38-5.51-.73-10.45-1.12-16l82.2,3v16.65Zm2.17-2.25,76.51,3.48V233.32l-76.51-3Z"/><path class="cls-19" d="M473.83,226.57c-.38,5.52-.71,10.29-1.08,15.75l-79.53,4V230Zm-78.67,17.36,75.5-3.83V228.93l-74.51,3.35C395.82,236.16,395.51,239.75,395.16,243.93Z"/><path class="cls-6" d="M410.82,538.15v16.14h28.32c-3,6.16-5.6,11.52-8.21,16.89L306.72,581.59c.83-11.81,1.6-22.67,2.37-33.72Z"/><path class="cls-27" d="M412.9,507l3.54,8.44,26.38-5.5V525c-22.28,2.25-44.56,4.6-66.86,6.74-21.81,2.1-43.63,4-66.07,6,.48-6.74,1-13.45,1.49-20.65,7-.7,13.91-1.41,20.8-2.08,11.39-1.11,22.79-2.17,34.18-3.31C381.88,510.17,397.38,508.55,412.9,507Z"/><path class="cls-14" d="M521.94,578.48c-5.84,23.44-18.24,42.56-37.73,57-1.71,1.27-3.48,2.47-5.07,3.59,2.94,4.47,5.68,8.62,8.43,12.77l-21.4,1V585.57l14.69,22.83,12.71-18.64-7.5-8.58,13.07-1.28h3Z"/><path class="cls-19" d="M410.82,538.15l-101.73,9.72c-.77,11-1.54,21.91-2.37,33.72l124.21-10.41c-.53,1-1.05,2-1.57,3L304.23,584.49c.94-13.66,1.81-26.38,2.69-39.21l103.91-9.67C410.82,536.46,410.82,537.3,410.82,538.15Z"/><path class="cls-19" d="M412.9,507c-15.52,1.59-31,3.21-46.54,4.76-11.39,1.14-22.79,2.2-34.18,3.31-6.89.67-13.78,1.38-20.8,2.08-.52,7.2-1,13.91-1.49,20.65,22.44-2,44.26-3.94,66.07-6,22.3-2.14,44.58-4.49,66.86-6.74v3q-19.56,1.82-39.12,3.65-17.56,1.67-35.15,3.37-24.75,2.37-49.51,4.71c-3.78.35-7.58.47-11.71.72.63-8.45,1.26-16.82,1.92-25.72,4.43-.55,9-1.21,13.5-1.64,18.32-1.76,36.65-3.36,54.95-5.2,11.37-1.13,22.71-2.58,34.06-3.89Z"/><path class="cls-23" d="M483.12,578.13l-12.24-12.24q.58-5.65,1.18-11.31l11.85.07c-.32,4.24-.57,8.5-1,12.73-.22,2.3.63,3,2.77,2.41l9.47,7.13Z"/><path class="cls-10" d="M466.18,522.87V503.43l7.69-2.29c-.67,6.93-1.35,13.87-2,21Z"/><path class="cls-17" d="M466.17,652.76l21.4-1c.72,1.11,1.44,2.22,2.17,3.33l-23.55,1C466.18,655,466.18,653.89,466.17,652.76Z"/><path class="cls-22" d="M466.18,522.87l5.65-.78c.69-7.08,1.37-14,2-21l3-1c-.83,8.18-1.66,16.36-2.5,24.62l-8.16.75C466.17,524.62,466.18,523.74,466.18,522.87Z"/><path class="cls-20" d="M486.92,554.63c2.57-.22,4.11-1,3.85-4.2-.47-5.82-.47-11.68-.67-17.52l-.05.05a36.58,36.58,0,0,1,1,5c.34,5.32.52,10.65.77,16q-2.83,5.79-5.66,11.59Z"/><path class="cls-21" d="M483.12,578.13l12-1.21,4,3-13.07,1.28Z"/><path class="cls-22" d="M486.92,554.63l-.75,10.92-.48,4.24c-2.14.6-3-.11-2.77-2.41.42-4.23.67-8.49,1-12.73Z"/><path class="cls-19" d="M485.84,532.7c.13-1.43.27-2.87.42-4.44l10.61-.7c-.1.89-.2,1.79-.29,2.68L489,532a.82.82,0,0,0-.48.73Z"/><path class="cls-22" d="M472.06,554.58q-.58,5.65-1.18,11.31l-2.76-2.69q.4-4.34.83-8.66Z"/><path class="cls-20" d="M469,554.54q-.42,4.32-.83,8.66c-.68-2.61-1.38-5.21-1.9-7.85A27.79,27.79,0,0,1,469,554.54Z"/><path class="cls-20" d="M488.55,532.71A.82.82,0,0,1,489,532l1,1,.05-.05Z"/><path class="cls-15" d="M505.39,650.83c16.05-15.67,26.74-34.43,32.52-57.63,1.05,3.5,1.71,5.74,2.39,8a127.77,127.77,0,0,0,27,47.66Z"/><path class="cls-27" d="M525.94,496.09l0,21.63-17.11,1.4-10.57-4.69c-.27,2-.5,3.74-.74,5.5l-7.77.35c.59-7.14,1.16-14,1.76-21.12Z"/><path class="cls-18" d="M565.61,525.16q-4.77,16.76-9.54,33.51c-.8,2.82-2,5-6.66,3.92V526.13Z"/><path class="cls-16" d="M525.06,527.91c.27.17.78.35.78.52q-.42,17.75-.9,35.49l-13.63.88q3.52-17.88,7-35.77Z"/><path class="cls-13" d="M505.39,650.83l61.89-2,4.13,3.71-70.47,2.25Z"/><path class="cls-22" d="M525.94,496.09l-34.46,3.07c-.6,7.12-1.17,14-1.76,21.12l7.77-.35c-.17,1-.33,2.06-.5,3.09l-10.42.51c.81-8.92,1.61-17.77,2.44-26.95l36.91-3.23C525.93,494.26,525.93,495.17,525.94,496.09Z"/><path class="cls-23" d="M524.72,567.06c-.61,2.74-1.23,5.48-1.84,8.21l-18,1.4,5.19-8.75Z"/><path class="cls-23" d="M549.45,523.14v-4.33L567,518c-.3,1.37-.59,2.75-.89,4.12Z"/><path class="cls-20" d="M525.06,527.91,518.35,529c1-4.37-2.05-6.07-5.14-7.74L526,520.2Z"/><path class="cls-13" d="M504.9,576.67l18-1.4c-.31,1.07-.62,2.14-.94,3.21l-19.82,1.41Z"/><path class="cls-21" d="M567,518l-17.58.84,0-2.93,18.53-1.1c-.13.87-.27,1.73-.4,2.6-.21.23-.42.45-.62.68Z"/><path class="cls-21" d="M549.45,523.14l16.69-1c-.18,1-.35,2-.53,3.07l-16.2,1C549.42,525.13,549.43,524.13,549.45,523.14Z"/><path class="cls-22" d="M524.72,567.06l-14.63.86,1.22-3.12,13.63-.88C524.87,565,524.79,566,524.72,567.06Z"/><path class="cls-1" d="M526,520.2l-12.75,1.09-4.41-2.17,17.11-1.4C525.93,518.54,525.94,519.37,526,520.2Z"/><path class="cls-22" d="M568,575.83l-14,.57-.93-3,8.53-.58Z"/><path class="cls-20" d="M561.62,572.82l-8.53.58c-.71-2.57-1.41-5.14-2-7.43Z"/><path class="cls-23" d="M566.93,518.06c.2-.23.41-.45.62-.68A5.06,5.06,0,0,1,566.93,518.06Z"/><path class="cls-19" d="M298.44,546.16c-.86,13.16-1.68,25.73-2.54,38.94l-103.25,5.76V553.28Zm-4.72,36.32c.8-11.78,1.54-22.47,2.3-33.59-12.11.83-23.67,1.64-35.23,2.42-18.39,1.25-36.77,2.68-55.18,3.63-10.54.54-10.57.17-10.59,10.6,0,7.4,0,14.79,0,22.63Z"/><path class="cls-19" d="M194.3,548.76V523.39l106.55-7.75c-.65,8.2-1.34,16.72-2.09,26Zm2.3-2.68,100.17-7c.49-7.52.93-14.21,1.36-20.65L196.6,525.8Z"/><path class="cls-19" d="M1193.4,555.28v37.56l-103.29-5.73c-.86-13.08-1.7-25.79-2.56-39Zm-2.51,34.87c0-10.56.1-20.19-.15-29.81,0-1.1-1.94-3-3.11-3.09-6.94-.63-13.93-.75-20.89-1.21-18.55-1.22-37.1-2.53-55.65-3.79-6.91-.47-13.82-.88-21.14-1.34.81,11.39,1.57,22.23,2.37,33.58Z"/><path class="cls-19" d="M1191.38,524.52v25.31L1088,543.89c-.71-8.77-1.38-17.12-2.09-25.91Zm-2.43,22.7c0-5,.11-9.17,0-13.31-.25-7.71,1.75-7.37-8-7.84-17.28-.84-34.56-1.83-51.83-2.85-13.38-.78-26.75-1.7-40.53-2.58.44,6.94.86,13.49,1.31,20.66Z"/><path class="cls-8" d="M508.8,519.12l4.41,2.17c3.09,1.67,6.12,3.37,5.14,7.74q-3.52,17.88-7,35.77l-1.22,3.12-5.19,8.75-2.78,3.22h-3l-4-3-9.47-7.13.48-4.24q2.82-5.79,5.66-11.59,2.37-11.87,4.75-23.72c.09-.89.19-1.79.29-2.68L497,523c.17-1,.33-2.06.5-3.09.24-1.76.47-3.51.74-5.5Z"/><path class="cls-6" d="M930.65,694V657.67l156.47,5.53V696Z"/><path class="cls-6" d="M297.21,695.72V662.43l138.14-5v36.5Z"/><path class="cls-8" d="M862.21,651.12l-3.14,3.65-3.61,2.67-3.79-2.89-4.75-3.79-10.62-8.53C850,631,859.79,617,866.52,600.41L888.39,611C879.53,624.59,870.87,637.85,862.21,651.12Z"/><path class="cls-6" d="M622.74,242.06c-.36,8-.66,14.75-1,21.75L484.05,270c.46-7.25.91-14.31,1.42-22.47Z"/><path class="cls-6" d="M768.12,264.7c-.41-7.19-.8-14.11-1.24-21.85l134.36,6.22c.53,7.65,1,14.92,1.58,22.77Z"/><path class="cls-11" d="M622.77,223.21v10.64L486.46,239V227.92Z"/><path class="cls-11" d="M899.91,229.21c.41,4,.76,7.44,1.15,11.29l-133.92-5.87c-.24-3.26-.48-6.52-.79-10.76Z"/><path class="cls-27" d="M634.46,264.3V242.66H754c.38,7.67.72,14.71,1.05,21.64Z"/><path class="cls-11" d="M753.74,223.69v10.38H635.14V223.69Z"/><path class="cls-27" d="M995.77,254.27V278l-75.62-4.73c-.49-7.85-1-15.24-1.44-23Z"/><path class="cls-6" d="M393.65,275.78c.45-7.78.87-15.07,1.32-23l75-4c-.41,7.33-.68,14.22-1.32,21.07-.08.77-2.2,1.85-3.42,1.93-12.45.84-24.9,1.45-37.35,2.24-8,.5-15.91,1.25-23.87,1.75C400.72,276,397.41,275.78,393.65,275.78Z"/><path class="cls-11" d="M918,241.65V230.32l76.51,3v11.81Z"/><path class="cls-11" d="M395.16,243.93c.35-4.18.66-7.77,1-11.65l74.51-3.35V240.1Z"/><path class="cls-18" d="M496.58,530.24q-2.38,11.87-4.75,23.72c-.25-5.33-.43-10.66-.77-16a36.58,36.58,0,0,0-1-5l-1-1Z"/><path class="cls-6" d="M293.72,582.48,195,588.17c0-7.84,0-15.23,0-22.63,0-10.43,0-10.06,10.59-10.6,18.41-1,36.79-2.38,55.18-3.63,11.56-.78,23.12-1.59,35.23-2.42C295.26,560,294.52,570.7,293.72,582.48Z"/><path class="cls-27" d="M196.6,546.08V525.8l101.53-7.32c-.43,6.44-.87,13.13-1.36,20.65Z"/><path class="cls-6" d="M1190.89,590.15l-98.57-5.66c-.8-11.35-1.56-22.19-2.37-33.58,7.32.46,14.23.87,21.14,1.34,18.55,1.26,37.1,2.57,55.65,3.79,7,.46,14,.58,20.89,1.21,1.17.1,3.09,2,3.11,3.09C1191,570,1190.89,579.59,1190.89,590.15Z"/><path class="cls-27" d="M1189,547.22l-99-5.92c-.45-7.17-.87-13.72-1.31-20.66,13.78.88,27.15,1.8,40.53,2.58,17.27,1,34.55,2,51.83,2.85,9.7.47,7.7.13,8,7.84C1189.06,538.05,1189,542.2,1189,547.22Z"/></g></svg>